<svg preserveAspectRatio="none" width="100%" height="100%" overflow="visible" style="display: block;" viewBox="0 0 24 24" fill="none" xmlns="http://www.w3.org/2000/svg">
<g id="Gear" clip-path="url(#clip0_14_7)">
<g id="Vector">
</g>
<path id="Subtract" d="M11.5498 4.5127C11.8508 4.49488 12.1531 4.49488 12.4541 4.5127L14.4229 2.94141C15.2203 3.15318 15.9861 3.46948 16.7002 3.88281L16.9814 6.38672C17.2067 6.58661 17.4202 6.80019 17.6201 7.02539L20.123 7.30664C20.5374 8.02039 20.8552 8.78641 21.0674 9.58398L19.4941 11.5527C19.512 11.8537 19.512 12.156 19.4941 12.457L21.0664 14.4258C20.8561 15.2231 20.5407 15.9888 20.1289 16.7031L17.625 16.9844C17.425 17.2097 17.2116 17.4231 16.9863 17.623L16.7051 20.126C15.9913 20.5404 15.2253 20.8581 14.4277 21.0703L12.459 19.4971C12.1581 19.5149 11.8565 19.5149 11.5557 19.4971L9.58691 21.0693C8.78941 20.859 8.02315 20.5437 7.30859 20.1318L7.02734 17.6279C6.80207 17.428 6.58862 17.2145 6.38867 16.9893L3.88379 16.6963C3.46944 15.9826 3.15261 15.2165 2.94043 14.4189L4.5127 12.4502C4.49488 12.1492 4.49488 11.8469 4.5127 11.5459L2.94141 9.57715C3.15318 8.77974 3.46948 8.01385 3.88281 7.2998L6.38672 7.01855C6.58661 6.79334 6.80019 6.57979 7.02539 6.37988L7.30664 3.87695C8.01984 3.46544 8.78489 3.15048 9.58105 2.94043L11.5498 4.5127ZM12 8.25C9.92893 8.25 8.25 9.92893 8.25 12C8.25 14.0711 9.92893 15.75 12 15.75C14.0711 15.75 15.75 14.0711 15.75 12C15.75 9.92893 14.0711 8.25 12 8.25Z" fill="var(--fill-0, black)" fill-opacity="0.2"/>
</g>
<defs>
<clipPath id="clip0_14_7">
<rect width="24" height="24" fill="white"/>
</clipPath>
</defs>
</svg>
