<svg width="28" height="28" viewBox="0 0 28 28" fill="none" xmlns="http://www.w3.org/2000/svg">
<path opacity="0.987" fill-rule="evenodd" clip-rule="evenodd" d="M12.6157 1.8568C13.8844 1.71505 14.6352 1.71505 15.9984 1.8568C18.4116 2.21397 20.6486 3.3294 22.3859 5.0418C21.2119 6.15154 20.0533 7.27748 18.9104 8.4193C16.7218 6.5643 14.2788 6.13613 11.5814 7.1348C9.60277 8.0448 8.22494 9.51947 7.44794 11.5588C6.17821 10.6135 4.92502 9.64619 3.68894 8.6573C3.60303 8.61208 3.50492 8.59553 3.40894 8.61005C5.37244 4.82422 8.44077 2.57255 12.6139 1.85505" fill="#F44336"/>
<path opacity="0.997" fill-rule="evenodd" clip-rule="evenodd" d="M3.40545 8.61007C3.50462 8.59491 3.59854 8.61066 3.6872 8.65732C4.92328 9.64621 6.17647 10.6135 7.4462 11.5588C7.2464 12.3534 7.12044 13.1648 7.06995 13.9826C7.11312 14.7736 7.23854 15.55 7.4462 16.3118L3.49995 19.4531C1.78145 15.8621 1.74995 12.2477 3.40545 8.61007Z" fill="#FFC107"/>
<path opacity="0.999" fill-rule="evenodd" clip-rule="evenodd" d="M22.1986 23.2578C20.9699 22.1741 19.6835 21.1577 18.3451 20.2128C19.6868 19.2654 20.5011 17.9658 20.7881 16.3138H14.2134V11.748C18.005 11.7165 21.795 11.7486 25.5831 11.8443C26.3018 15.7468 25.4717 19.2654 23.0929 22.4003C22.81 22.701 22.5104 22.9872 22.1986 23.2578Z" fill="#448AFF"/>
<path opacity="0.993" fill-rule="evenodd" clip-rule="evenodd" d="M7.44625 16.3135C8.88125 19.88 11.5121 21.5448 15.3388 21.308C16.413 21.1836 17.4429 20.8084 18.3453 20.2125C19.6846 21.1598 20.9691 22.1748 22.1988 23.2575C20.2504 25.0083 17.7662 26.0471 15.1515 26.2045C14.5574 26.252 13.9606 26.252 13.3665 26.2045C8.91217 25.6795 5.62333 23.429 3.5 19.453L7.44625 16.3135Z" fill="#43A047"/>
</svg>
